<?xml version="1.0" encoding="UTF-8" standalone="no"?>
<svg
   xmlns:dc="http://purl.org/dc/elements/1.1/"
   xmlns:cc="http://creativecommons.org/ns#"
   xmlns:rdf="http://www.w3.org/1999/02/22-rdf-syntax-ns#"
   xmlns:svg="http://www.w3.org/2000/svg"
   xmlns="http://www.w3.org/2000/svg"
   xmlns:sodipodi="http://sodipodi.sourceforge.net/DTD/sodipodi-0.dtd"
   xmlns:inkscape="http://www.inkscape.org/namespaces/inkscape"
   sodipodi:docname="01n.svg"
   inkscape:version="1.0 (4035a4fb49, 2020-05-01)"
   id="svg16"
   version="1.1"
   viewBox="0 0 82 82"
   height="309.92126"
   width="309.92126">
  <defs
     id="defs10" />
  <sodipodi:namedview
     inkscape:window-maximized="0"
     inkscape:window-y="0"
     inkscape:window-x="421"
     inkscape:window-height="1008"
     inkscape:window-width="1274"
     units="px"
     showgrid="false"
     inkscape:document-rotation="0"
     inkscape:current-layer="g1073"
     inkscape:document-units="px"
     inkscape:cy="137.28345"
     inkscape:cx="186.14557"
     inkscape:zoom="1.4"
     inkscape:pageshadow="2"
     inkscape:pageopacity="0.0"
     borderopacity="1.0"
     bordercolor="#666666"
     pagecolor="#ffffff"
     id="base" />
  <metadata
     id="metadata13">
    <rdf:RDF>
      <cc:Work
         rdf:about="">
        <dc:format>image/svg+xml</dc:format>
        <dc:type
           rdf:resource="http://purl.org/dc/dcmitype/StillImage" />
        <dc:title></dc:title>
      </cc:Work>
    </rdf:RDF>
  </metadata>
  <g
     id="layer1"
     inkscape:groupmode="layer"
     inkscape:label="Layer 1">
    <g
       transform="matrix(1.2512582,0,0,1.2512582,0.98204723,0.87450371)"
       id="g1073">
      <g
         id="Layer_1">
</g>
      <g
         style="fill:#fff492;fill-opacity:1"
         transform="matrix(0.99699715,0,0,0.99699715,0.45357839,0.16224423)"
         id="g1770">
        <g
           style="fill:#fff492;fill-opacity:1"
           id="moon">
	<path
   style="fill:#fff492;fill-opacity:1"
   d="M 32.264,62.173 C 14.473,62.173 0,47.7 0,29.909 0,18.467 6.156,7.778 16.064,2.011 c 0.46,-0.267 1.033,-0.243 1.468,0.063 0.436,0.307 0.653,0.838 0.556,1.362 -0.335,1.811 -0.505,3.636 -0.505,5.424 0,16.288 13.253,29.54 29.541,29.54 5.21,0 10.338,-1.382 14.83,-3.997 0.46,-0.267 1.032,-0.245 1.469,0.064 0.435,0.306 0.652,0.838 0.555,1.362 -2.833,15.265 -16.17,26.344 -31.714,26.344 z M 14.993,5.952 c -7.633,5.52 -12.27,14.456 -12.27,23.957 0,16.288 13.253,29.54 29.541,29.54 13.253,0 24.754,-8.796 28.366,-21.292 -4.218,1.947 -8.832,2.965 -13.507,2.965 -17.791,0 -32.264,-14.473 -32.264,-32.264 0,-0.96 0.045,-1.932 0.134,-2.906 z"
   id="path1755" />

</g>
        <g
           style="fill:#fff492;fill-opacity:1"
           id="Layer_1-6">
</g>
      </g>
    </g>
  </g>
</svg>
