<svg xmlns="http://www.w3.org/2000/svg" id="Layer_1" data-name="Layer 1" viewBox="0 0 86.52 67.29"><defs><style>.cls-1{fill:none;stroke:#fff492;stroke-miterlimit:10;stroke-width:2px}.cls-2{fill:#caf7ff}</style></defs><path d="M51,31a3.3,3.3,0,0,1-1.35-3.26l1.68-7.57a1.26,1.26,0,0,0-1.63-1.63l-7.57,1.68a3.3,3.3,0,0,1-3.26-1.35l-4.16-6.54a1.26,1.26,0,0,0-2.31,0l-4.16,6.54a3.3,3.3,0,0,1-3.26,1.35l-7.57-1.68a1.26,1.26,0,0,0-1.63,1.63l1.69,7.57A3.32,3.32,0,0,1,16.07,31L9.52,35.17a1.26,1.26,0,0,0,0,2.31l6.55,4.16a3.32,3.32,0,0,1,1.35,3.26L16.05,51a5.33,5.33,0,0,1,1.49-1.42,4.21,4.21,0,0,1,1.22-.51,6.25,6.25,0,0,1,1.42-1.25,3.9,3.9,0,0,1,1-.45,5.13,5.13,0,0,1,2.72-2,4.19,4.19,0,0,1,1.73-.15,5.14,5.14,0,0,1,1.53-.73l1.33-.18a3.88,3.88,0,0,1,1.93.43h0a5.45,5.45,0,0,1,4.19.33A4.21,4.21,0,0,1,36,46.24l.36.06a3.66,3.66,0,0,1,1.72.51l-.15-1.07a5,5,0,0,1,1.47-3.54,4.35,4.35,0,0,1,1.43-1,3.82,3.82,0,0,1,.47-.61,6.14,6.14,0,0,1,.54-1.26A8.24,8.24,0,0,1,45,36.29c.22-.16.43-.32.66-.47A9,9,0,0,1,48,34.74l.49-.25a12.33,12.33,0,0,1,4.6-2.11Z" class="cls-1" transform="translate(-7.77 -10.59)"/><path d="M33.51,23.19a13.12,13.12,0,0,0-9.16,22.52,5.43,5.43,0,0,1,3-1.06,3.84,3.84,0,0,1,1,.09,5.22,5.22,0,0,1,1-.15,4.37,4.37,0,0,1,1.7.27h.32l.06,0a5.1,5.1,0,0,1,3.86.5,4.85,4.85,0,0,1,.78.59,4.32,4.32,0,0,1,1.92.43v0s0-.07,0-.11a5.64,5.64,0,0,1,.69-2.66,4.42,4.42,0,0,1,1-1.23h0a4.8,4.8,0,0,1,1.46-2.19h0l.5-1.19a4.93,4.93,0,0,1,2.76-2.21l.38-.48a3.8,3.8,0,0,1,1.61-1l.06,0A13.11,13.11,0,0,0,33.51,23.19Z" class="cls-1" transform="translate(-7.77 -10.59)"/><g id="cloud"><path d="M82.37,52.73a23.84,23.84,0,0,0-45.63-8.25,17.43,17.43,0,1,0-7,33.4H81.69a12.58,12.58,0,0,0,.68-25.15ZM81.69,75H29.76a14.57,14.57,0,1,1,0-29.14,14.35,14.35,0,0,1,7,1.82h0a14.52,14.52,0,0,1,7.27,10.07l2.81-.52a17.35,17.35,0,0,0-7.62-11.4,21,21,0,0,1,40.27,8.31,1.42,1.42,0,0,0,1.52,1.42l.62,0a9.73,9.73,0,1,1,0,19.45Z" class="cls-2" transform="translate(-7.77 -10.59)"/></g></svg>