<svg xmlns="http://www.w3.org/2000/svg" xmlns:svg="http://www.w3.org/2000/svg" id="Layer_1" data-name="Layer 1" version="1.1" viewBox="0 0 86.52 67.29"><metadata id="metadata40"/><defs id="defs28"><style id="style26">.cls-2{fill:#caf7ff}</style></defs><g id="cloud" transform="translate(-2.6178869,-8.5365877)"><path id="path34" d="m 82.37,52.73 a 23.84,23.84 0 0 0 -45.63,-8.25 17.43,17.43 0 1 0 -7,33.4 H 81.69 A 12.58,12.58 0 0 0 82.37,52.73 Z M 81.69,75 H 29.76 a 14.57,14.57 0 1 1 0,-29.14 14.35,14.35 0 0 1 7,1.82 v 0 a 14.52,14.52 0 0 1 7.27,10.07 l 2.81,-0.52 a 17.35,17.35 0 0 0 -7.62,-11.4 21,21 0 0 1 40.27,8.31 1.42,1.42 0 0 0 1.52,1.42 h 0.62 a 9.73,9.73 0 1 1 0,19.45 z" class="cls-2" transform="translate(-7.77,-10.59)"/></g></svg>