<svg xmlns="http://www.w3.org/2000/svg" xmlns:svg="http://www.w3.org/2000/svg" id="Layer_1" data-name="Layer 1" version="1.1" viewBox="0 0 86.52 67.29"><metadata id="metadata40"/><defs id="defs28"><style id="style26">.cls-2{fill:#caf7ff}</style></defs><g style="stroke-width:2.24759978;stroke-miterlimit:4;stroke-dasharray:none;stroke:#caf7ff;stroke-opacity:1;fill:#000;fill-opacity:0" id="g141" transform="matrix(1.2902653,0,0,1.2902653,39.43859,11.860374)"><path id="path139" d="m 27.904597,27.137827 c -0.468669,-8.345288 -11.848835,-10.402846 -15.21,-2.75 -3.3771642,-1.476712 -7.2580805,0.524047 -8.0141473,4.131566 -0.7560667,3.607519 1.9949084,6.998195 5.6808143,7.001767 h 17.316667 c 5.54543,0.105423 5.769691,-8.188949 0.226666,-8.383333 z" class="cls-2" style="fill:#000;fill-opacity:0;stroke:#caf7ff;stroke-width:2.24759978;stroke-miterlimit:4;stroke-dasharray:none;stroke-opacity:1"/><path style="fill:#000;fill-opacity:0;stroke:#caf7ff;stroke-width:2.24759978;stroke-miterlimit:4;stroke-dasharray:none;stroke-opacity:1" id="path990" d="m 27.904597,27.137827 c -0.468669,-8.345288 -11.848835,-10.402846 -15.21,-2.75 -3.3771642,-1.476712 -7.2580805,0.524047 -8.0141473,4.131566 -0.7560667,3.607519 1.9949084,6.998195 5.6808143,7.001767 h 17.316667 c 5.54543,0.105423 5.769691,-8.188949 0.226666,-8.383333 z" class="cls-2"/></g><g id="g996" transform="matrix(1.7529951,0,0,1.7529951,-1.3216376,-27.074344)" style="stroke-width:1.66535;stroke-miterlimit:4;stroke-dasharray:none"><path style="fill:none;fill-opacity:1;stroke:#caf7ff;stroke-width:1.66535;stroke-miterlimit:4;stroke-dasharray:none;stroke-opacity:1" id="path992" d="m 27.904597,27.137827 c -0.468669,-8.345288 -11.848835,-10.402846 -15.21,-2.75 -3.3771642,-1.476712 -7.2580805,0.524047 -8.0141473,4.131566 -0.7560667,3.607519 1.9949084,6.998195 5.6808143,7.001767 h 17.316667 c 5.54543,0.105423 5.769691,-8.188949 0.226666,-8.383333 z" class="cls-2"/><path id="path994" d="m 27.904597,27.137827 c -0.468669,-8.345288 -11.848835,-10.402846 -15.21,-2.75 -3.3771642,-1.476712 -7.2580805,0.524047 -8.0141473,4.131566 -0.7560667,3.607519 1.9949084,6.998195 5.6808143,7.001767 h 17.316667 c 5.54543,0.105423 5.769691,-8.188949 0.226666,-8.383333 z" class="cls-2" style="fill:none;fill-opacity:1;stroke:#caf7ff;stroke-width:1.66535;stroke-miterlimit:4;stroke-dasharray:none;stroke-opacity:1"/></g></svg>