<?xml version="1.0" encoding="UTF-8" standalone="no"?>
<svg
   xmlns:dc="http://purl.org/dc/elements/1.1/"
   xmlns:cc="http://creativecommons.org/ns#"
   xmlns:rdf="http://www.w3.org/1999/02/22-rdf-syntax-ns#"
   xmlns:svg="http://www.w3.org/2000/svg"
   xmlns="http://www.w3.org/2000/svg"
   xmlns:sodipodi="http://sodipodi.sourceforge.net/DTD/sodipodi-0.dtd"
   xmlns:inkscape="http://www.inkscape.org/namespaces/inkscape"
   sodipodi:docname="13d.svg"
   inkscape:version="1.0 (4035a4fb49, 2020-05-01)"
   id="svg16"
   version="1.1"
   viewBox="0 0 82 82"
   height="309.92126"
   width="309.92126">
  <defs
     id="defs10" />
  <sodipodi:namedview
     inkscape:window-maximized="0"
     inkscape:window-y="0"
     inkscape:window-x="421"
     inkscape:window-height="1008"
     inkscape:window-width="1274"
     units="px"
     showgrid="false"
     inkscape:document-rotation="0"
     inkscape:current-layer="layer1"
     inkscape:document-units="px"
     inkscape:cy="83.359681"
     inkscape:cx="167.88366"
     inkscape:zoom="1.4"
     inkscape:pageshadow="2"
     inkscape:pageopacity="0.0"
     borderopacity="1.0"
     bordercolor="#666666"
     pagecolor="#ffffff"
     id="base" />
  <metadata
     id="metadata13">
    <rdf:RDF>
      <cc:Work
         rdf:about="">
        <dc:format>image/svg+xml</dc:format>
        <dc:type
           rdf:resource="http://purl.org/dc/dcmitype/StillImage" />
        <dc:title></dc:title>
      </cc:Work>
    </rdf:RDF>
  </metadata>
  <g
     id="layer1"
     inkscape:groupmode="layer"
     inkscape:label="Layer 1">
    <g
       style="fill:#caf7ff;fill-opacity:1"
       transform="matrix(1.2685826,0,0,1.2685826,0.60476163,0.41577397)"
       id="g1004">
      <g
         style="fill:#caf7ff;fill-opacity:1"
         id="snowflake">
	<polygon
   style="fill:#caf7ff;fill-opacity:1"
   points="55.878,30.142 34.928,30.142 49.066,16.004 57.336,15.368 57.121,12.572 52.113,12.958 54.84,10.23 52.858,8.247 50.13,10.975 50.515,5.966 47.72,5.752 47.084,14.021 32.946,28.159 32.946,8.166 38.344,1.868 36.215,0.043 32.946,3.857 32.946,0 30.142,0 30.142,3.857 26.873,0.043 24.744,1.868 30.142,8.166 30.142,28.159 16.005,14.021 15.369,5.752 12.573,5.966 12.958,10.975 10.23,8.247 8.248,10.23 10.975,12.958 5.967,12.572 5.752,15.368 14.022,16.004 28.16,30.142 8.166,30.142 1.869,24.744 0.044,26.873 3.857,30.142 0,30.142 0,32.946 3.857,32.946 0.044,36.214 1.869,38.343 8.166,32.946 28.159,32.946 13.346,47.759 5.077,48.395 5.292,51.191 10.299,50.805 8.248,52.857 10.23,54.839 12.282,52.788 11.897,57.797 14.692,58.012 15.329,49.741 30.142,34.928 30.142,55.877 24.744,62.175 26.873,64 30.142,60.186 30.142,63.088 32.946,63.088 32.946,60.186 36.215,64 38.344,62.175 32.946,55.877 32.946,34.927 47.759,49.741 48.396,58.012 51.192,57.797 50.806,52.788 52.858,54.839 54.84,52.857 52.789,50.805 57.797,51.191 58.012,48.395 49.743,47.759 34.929,32.946 55.878,32.946 62.175,38.343 64,36.214 60.186,32.946 63.088,32.946 63.088,30.142 60.186,30.142 64,26.873 62.175,24.744 "
   id="polygon989" />

</g>
      <g
         style="fill:#caf7ff;fill-opacity:1"
         id="Layer_1">
</g>
    </g>
  </g>
</svg>
