<svg xmlns="http://www.w3.org/2000/svg" xmlns:svg="http://www.w3.org/2000/svg" id="svg16" width="309.921" height="309.921" version="1.1" viewBox="0 0 82 82"><metadata id="metadata13"/><g id="layer1"><g style="fill:#caf7ff;fill-opacity:1" id="g1056" transform="matrix(1.2685669,0,0,1.2685669,0.41564158,2.0397418)"><g style="fill:#caf7ff;fill-opacity:1" id="windy"><g style="fill:#caf7ff;fill-opacity:1" id="g1022"><path style="fill:#caf7ff;fill-opacity:1" id="path1020" d="m 55.995,22.55 c -2.468,0 -3.753,-1.379 -4.786,-2.486 -0.94,-1.009 -1.683,-1.805 -3.218,-1.805 -1.533,0 -2.275,0.796 -3.215,1.804 -1.032,1.109 -2.318,2.488 -4.784,2.488 -2.468,0 -3.753,-1.379 -4.786,-2.488 -0.94,-1.008 -1.682,-1.804 -3.216,-1.804 -1.533,0 -2.275,0.796 -3.215,1.804 -1.032,1.109 -2.318,2.488 -4.784,2.488 -2.466,0 -3.751,-1.379 -4.783,-2.488 -0.94,-1.008 -1.682,-1.804 -3.214,-1.804 -1.532,0 -2.274,0.796 -3.214,1.804 -1.032,1.109 -2.317,2.488 -4.783,2.488 -2.466,0 -3.751,-1.379 -4.783,-2.488 C 2.274,19.054 1.532,18.258 0,18.258 v -2.146 c 2.466,0 3.75,1.379 4.782,2.488 0.94,1.008 1.681,1.804 3.214,1.804 1.532,0 2.274,-0.796 3.214,-1.804 1.032,-1.109 2.317,-2.488 4.783,-2.488 2.466,0 3.751,1.379 4.783,2.488 0.94,1.008 1.682,1.804 3.214,1.804 1.533,0 2.275,-0.796 3.215,-1.804 1.032,-1.109 2.318,-2.488 4.784,-2.488 2.466,0 3.752,1.379 4.785,2.488 0.94,1.008 1.683,1.804 3.217,1.804 1.533,0 2.275,-0.796 3.215,-1.804 1.032,-1.109 2.318,-2.488 4.784,-2.488 2.468,0 3.754,1.379 4.788,2.488 0.94,1.008 1.683,1.804 3.217,1.804 1.535,0 2.278,-0.796 3.218,-1.804 1.033,-1.109 2.32,-2.488 4.788,-2.488 v 2.146 c -1.535,0 -2.278,0.796 -3.218,1.804 -1.034,1.109 -2.321,2.488 -4.788,2.488 z"/></g><g style="fill:#caf7ff;fill-opacity:1" id="g1026"><path style="fill:#caf7ff;fill-opacity:1" id="path1024" d="m 55.995,30.996 c -2.468,0 -3.753,-1.379 -4.786,-2.486 -0.94,-1.009 -1.683,-1.805 -3.218,-1.805 -1.533,0 -2.275,0.796 -3.215,1.804 -1.032,1.109 -2.318,2.488 -4.784,2.488 -2.468,0 -3.753,-1.379 -4.786,-2.488 -0.94,-1.008 -1.682,-1.804 -3.216,-1.804 -1.533,0 -2.275,0.796 -3.215,1.804 -1.032,1.109 -2.318,2.488 -4.784,2.488 -2.466,0 -3.751,-1.379 -4.783,-2.488 -0.94,-1.008 -1.682,-1.804 -3.214,-1.804 -1.532,0 -2.274,0.796 -3.214,1.804 -1.032,1.109 -2.317,2.488 -4.783,2.488 -2.466,0 -3.751,-1.379 -4.783,-2.488 C 2.274,27.501 1.532,26.704 0,26.704 v -2.146 c 2.466,0 3.75,1.379 4.782,2.488 0.94,1.008 1.681,1.804 3.214,1.804 1.532,0 2.274,-0.796 3.214,-1.804 1.032,-1.109 2.317,-2.488 4.783,-2.488 2.466,0 3.751,1.379 4.783,2.488 0.94,1.008 1.682,1.804 3.214,1.804 1.533,0 2.275,-0.796 3.215,-1.804 1.032,-1.109 2.318,-2.488 4.784,-2.488 2.466,0 3.752,1.379 4.785,2.488 0.94,1.008 1.683,1.804 3.217,1.804 1.533,0 2.275,-0.796 3.215,-1.804 1.032,-1.109 2.318,-2.488 4.784,-2.488 2.468,0 3.754,1.379 4.788,2.488 0.94,1.008 1.683,1.804 3.217,1.804 1.535,0 2.278,-0.796 3.218,-1.804 1.033,-1.109 2.32,-2.488 4.788,-2.488 v 2.146 c -1.535,0 -2.278,0.796 -3.218,1.804 -1.034,1.109 -2.321,2.488 -4.788,2.488 z"/></g><g style="fill:#caf7ff;fill-opacity:1" id="g1030"><path style="fill:#caf7ff;fill-opacity:1" id="path1028" d="m 55.995,39.443 c -2.468,0 -3.753,-1.379 -4.786,-2.486 -0.94,-1.009 -1.683,-1.805 -3.218,-1.805 -1.533,0 -2.275,0.796 -3.215,1.804 -1.032,1.109 -2.318,2.488 -4.784,2.488 -2.468,0 -3.753,-1.379 -4.786,-2.488 -0.94,-1.008 -1.682,-1.804 -3.216,-1.804 -1.533,0 -2.275,0.796 -3.215,1.804 -1.032,1.109 -2.318,2.488 -4.784,2.488 -2.466,0 -3.751,-1.379 -4.783,-2.488 -0.94,-1.008 -1.682,-1.804 -3.214,-1.804 -1.532,0 -2.274,0.796 -3.214,1.804 -1.032,1.109 -2.317,2.488 -4.783,2.488 -2.466,0 -3.751,-1.379 -4.783,-2.488 C 2.274,35.947 1.532,35.151 0,35.151 v -2.146 c 2.466,0 3.75,1.379 4.782,2.488 0.94,1.008 1.681,1.804 3.214,1.804 1.532,0 2.274,-0.796 3.214,-1.804 1.032,-1.109 2.317,-2.488 4.783,-2.488 2.466,0 3.751,1.379 4.783,2.488 0.94,1.008 1.682,1.804 3.214,1.804 1.533,0 2.275,-0.796 3.215,-1.804 1.032,-1.109 2.318,-2.488 4.784,-2.488 2.466,0 3.752,1.379 4.785,2.488 0.94,1.008 1.683,1.804 3.217,1.804 1.533,0 2.275,-0.796 3.215,-1.804 1.032,-1.109 2.318,-2.488 4.784,-2.488 2.468,0 3.754,1.379 4.788,2.488 0.94,1.008 1.683,1.804 3.217,1.804 1.535,0 2.278,-0.796 3.218,-1.804 1.033,-1.109 2.32,-2.488 4.788,-2.488 v 2.146 c -1.535,0 -2.278,0.796 -3.218,1.804 -1.034,1.109 -2.321,2.488 -4.788,2.488 z"/></g><g style="fill:#caf7ff;fill-opacity:1" id="g1034"><path style="fill:#caf7ff;fill-opacity:1" id="path1032" d="m 55.995,47.888 c -2.468,0 -3.753,-1.379 -4.786,-2.486 -0.94,-1.009 -1.683,-1.805 -3.218,-1.805 -1.533,0 -2.275,0.796 -3.215,1.804 -1.032,1.109 -2.318,2.488 -4.784,2.488 -2.468,0 -3.753,-1.379 -4.786,-2.488 -0.94,-1.008 -1.682,-1.804 -3.216,-1.804 -1.533,0 -2.275,0.796 -3.215,1.804 -1.032,1.109 -2.318,2.488 -4.784,2.488 -2.466,0 -3.751,-1.379 -4.783,-2.488 -0.94,-1.008 -1.682,-1.804 -3.214,-1.804 -1.532,0 -2.274,0.796 -3.214,1.804 -1.032,1.109 -2.317,2.488 -4.783,2.488 -2.466,0 -3.751,-1.379 -4.783,-2.488 C 2.274,44.393 1.532,43.596 0,43.596 V 41.45 c 2.466,0 3.75,1.379 4.782,2.488 0.94,1.008 1.681,1.804 3.214,1.804 1.532,0 2.274,-0.796 3.214,-1.804 1.032,-1.109 2.317,-2.488 4.783,-2.488 2.466,0 3.751,1.379 4.783,2.488 0.94,1.008 1.682,1.804 3.214,1.804 1.533,0 2.275,-0.796 3.215,-1.804 1.032,-1.109 2.318,-2.488 4.784,-2.488 2.466,0 3.752,1.379 4.785,2.488 0.94,1.008 1.683,1.804 3.217,1.804 1.533,0 2.275,-0.796 3.215,-1.804 1.032,-1.109 2.318,-2.488 4.784,-2.488 2.468,0 3.754,1.379 4.788,2.488 0.94,1.008 1.683,1.804 3.217,1.804 1.535,0 2.278,-0.796 3.218,-1.804 1.033,-1.109 2.32,-2.488 4.788,-2.488 v 2.146 c -1.535,0 -2.278,0.796 -3.218,1.804 -1.034,1.109 -2.321,2.488 -4.788,2.488 z"/></g></g></g></g></svg>