<svg xmlns="http://www.w3.org/2000/svg" xmlns:svg="http://www.w3.org/2000/svg" id="svg8" width="46.553" height="46.201" version="1.1" viewBox="0 0 12.317 12.224"><metadata id="metadata5"/><g id="layer1" transform="translate(-82.287814,-133.73919)"><path id="path2434" d="m 88.721573,133.8186 c -0.0768,0.006 -0.152723,0.0183 -0.226102,0.0413 l -5.173688,1.57787 c -0.476329,0.14555 -0.754553,0.63995 -0.632119,1.12324 l 0.602942,5.4314 c 0.02791,0.24708 0.153023,0.47284 0.347675,0.62726 l 3.826773,3.04392 c 0.01655,0.0143 0.0336,0.0281 0.05103,0.0413 0.02426,0.019 0.04944,0.037 0.07531,0.0535 0.026,0.0166 0.05276,0.0322 0.08029,0.0462 0.02613,0.0134 0.05301,0.0256 0.08029,0.0364 l 0.01941,0.008 c 0.01917,0.008 0.0387,0.0135 0.05838,0.0193 0.0177,0.006 0.03545,0.01 0.05352,0.0145 l 0.01246,0.002 h 0.0051 c 0.02089,0.006 0.04196,0.009 0.06324,0.0124 l 0.06074,0.008 h 0.01457 c 0.01852,9.9e-4 0.03724,0.002 0.05589,0.002 0.026,-7.1e-4 0.05193,-0.002 0.07781,-0.006 0.03098,-0.002 0.06189,-0.007 0.09236,-0.0124 0.0311,-0.007 0.06195,-0.0131 0.09236,-0.0219 0.08764,-0.0249 0.171223,-0.0625 0.247993,-0.11177 l 4.811421,-2.70111 c 0.275872,-0.15525 0.454352,-0.4399 0.474095,-0.75613 l 0.352522,-5.81552 c 0.01419,-0.24192 -0.06597,-0.4799 -0.223661,-0.66373 -0.0063,-0.008 -0.01283,-0.0147 -0.0194,-0.0219 -0.03583,-0.0389 -0.07482,-0.0747 -0.11664,-0.10696 -0.0074,-0.007 -0.01456,-0.0112 -0.02192,-0.0171 l -0.01456,-0.01 c -0.02045,-0.0154 -0.04158,-0.03 -0.06324,-0.0439 -0.01826,-0.01 -0.03698,-0.02 -0.05589,-0.0292 -0.0088,-0.003 -0.01782,-0.009 -0.02677,-0.0124 -0.01914,-0.01 -0.03858,-0.0184 -0.05838,-0.0268 l -0.0074,-0.002 c -0.01283,-0.003 -0.02587,-0.009 -0.03883,-0.0124 l -4.509997,-1.6626 c -0.117388,-0.0431 -0.242237,-0.0621 -0.367118,-0.0559 z m -0.188702,0.91909 c 0.405006,-0.057 0.802504,0.0386 0.887401,0.21394 0.08477,0.17508 -0.176052,0.36358 -0.581074,0.4206 -0.405008,0.057 -0.800207,-0.0389 -0.884974,-0.21395 -0.08489,-0.17532 0.173625,-0.36358 0.578647,-0.42059 z m -2.603866,0.73423 c 0.428793,-0.0645 0.84859,0.0447 0.938461,0.24312 0.08975,0.19822 -0.186309,0.41204 -0.615105,0.47652 -0.428808,0.0645 -0.848711,-0.045 -0.938461,-0.24313 -0.08988,-0.19848 0.186309,-0.41204 0.615105,-0.47651 z m 5.23204,0.10455 c 0.452584,0.062 0.741399,0.26655 0.646711,0.45707 -0.09486,0.19075 -0.536935,0.29537 -0.989517,0.23338 -0.452596,-0.062 -0.743965,-0.26873 -0.649151,-0.45949 0.09473,-0.19051 0.539376,-0.29294 0.991957,-0.23096 z m -2.924789,0.0291 c 0.500163,-0.062 0.989242,0.0425 1.094053,0.23339 0.104686,0.19053 -0.214618,0.39511 -0.714785,0.45709 -0.500164,0.062 -0.991803,-0.0429 -1.096482,-0.23342 -0.104807,-0.19076 0.217059,-0.39507 0.717214,-0.45706 z m 0.179914,0.94819 c 0.365036,0.0131 0.670121,0.11526 0.751248,0.26987 0.107924,0.20593 -0.223083,0.42657 -0.739097,0.49354 -0.516024,0.0669 -1.022605,-0.0444 -1.130526,-0.25042 -0.108177,-0.2062 0.223079,-0.42901 0.739096,-0.49598 0.129001,-0.0167 0.257598,-0.0214 0.379279,-0.0171 z m -4.334713,0.88848 c 0.182323,0.0111 0.401853,0.20676 0.556743,0.51785 0.206588,0.4148 0.217555,0.88065 0.02426,1.03815 -0.192984,0.15726 -0.515548,-0.0521 -0.722068,-0.46681 -0.206589,-0.41478 -0.217307,-0.87843 -0.02426,-1.03571 0.04828,-0.0394 0.104566,-0.0574 0.165339,-0.0535 z m 8.468827,0.45811 c 0.08353,-0.0111 0.165208,-0.003 0.238253,0.0316 0.291793,0.14062 0.347812,0.62869 0.126436,1.0892 -0.221387,0.46048 -0.636936,0.71923 -0.928742,0.57864 -0.29219,-0.14083 -0.350236,-0.62628 -0.128853,-1.08679 0.166036,-0.34536 0.442217,-0.57754 0.692906,-0.61265 z m -6.429017,0.70159 c 0.197998,0.0124 0.439597,0.21888 0.60781,0.54703 0.224263,0.43752 0.236597,0.92552 0.02676,1.09163 -0.209577,0.1659 -0.563437,-0.0535 -0.787724,-0.4911 -0.224224,-0.43755 -0.23631,-0.92817 -0.02676,-1.09408 0.05238,-0.0415 0.113901,-0.0576 0.179914,-0.0535 z m 3.788684,0.39976 c 0.08353,-0.0112 0.165218,-0.003 0.238264,0.0317 0.291791,0.14061 0.347795,0.62869 0.126419,1.08918 -0.221387,0.4605 -0.636922,0.71927 -0.928725,0.57865 -0.292195,-0.14082 -0.34781,-0.62628 -0.126429,-1.08676 0.166037,-0.34538 0.439776,-0.57758 0.690471,-0.61268 z m -5.585374,0.20561 c 0.16664,0.0125 0.368995,0.21081 0.510567,0.5276 0.188793,0.42235 0.198508,0.89479 0.02191,1.05516 -0.176389,0.16015 -0.472523,-0.0517 -0.661299,-0.4741 -0.188813,-0.42237 -0.198272,-0.895 -0.02191,-1.05516 0.04421,-0.0401 0.09522,-0.0575 0.150732,-0.0535 z m 1.920684,1.30559 c 0.197997,0.0124 0.437155,0.21887 0.605381,0.54702 0.224263,0.43752 0.236598,0.92552 0.02676,1.09164 -0.209577,0.16591 -0.561009,-0.0535 -0.78529,-0.49111 -0.224226,-0.43755 -0.236316,-0.92816 -0.02676,-1.09406 0.05238,-0.0415 0.113893,-0.0576 0.179909,-0.0536 z m 6.246667,0.41192 c 0.08353,-0.0111 0.165224,-9.9e-4 0.238269,0.0341 0.291792,0.1406 0.347797,0.62626 0.126421,1.08675 -0.221391,0.4605 -0.636925,0.72168 -0.928727,0.58107 -0.292195,-0.14082 -0.350252,-0.62872 -0.128869,-1.08921 0.166051,-0.34536 0.442218,-0.57755 0.692906,-0.61266 z m -7.950971,0.0743 c 0.156199,0.01 0.346257,0.18093 0.478948,0.45222 0.176984,0.36171 0.185001,0.7671 0.01942,0.90443 -0.165331,0.13714 -0.443032,-0.0443 -0.61997,-0.40602 -0.176881,-0.3617 -0.184777,-0.7673 -0.01941,-0.90444 0.04145,-0.0343 0.08888,-0.0495 0.141009,-0.0462 z m 5.398172,1.12915 c 0.08353,-0.0111 0.165218,-9.8e-4 0.238264,0.0341 0.291791,0.14061 0.350224,0.6287 0.128847,1.0892 -0.221389,0.46048 -0.639351,0.71924 -0.931154,0.57863 -0.292193,-0.14082 -0.347823,-0.62871 -0.126439,-1.08919 0.166048,-0.34539 0.439787,-0.57756 0.690482,-0.61268 z m -3.57717,0.20561 c 0.197997,0.0124 0.439591,0.21888 0.607809,0.54703 0.224263,0.43752 0.23417,0.92552 0.02426,1.09162 -0.209572,0.16592 -0.561004,-0.0535 -0.78529,-0.49109 -0.224225,-0.43755 -0.236311,-0.92573 -0.02676,-1.09165 0.05245,-0.0415 0.113904,-0.06 0.179911,-0.0559 z" style="color:#000;font-style:normal;font-variant:normal;font-weight:400;font-stretch:normal;font-size:medium;line-height:normal;font-family:sans-serif;text-indent:0;text-align:start;text-decoration:none;text-decoration-line:none;text-decoration-style:solid;text-decoration-color:#000;letter-spacing:normal;word-spacing:normal;text-transform:none;writing-mode:lr-tb;direction:ltr;baseline-shift:baseline;text-anchor:start;white-space:normal;clip-rule:nonzero;display:inline;overflow:visible;visibility:visible;isolation:auto;mix-blend-mode:normal;color-interpolation:sRGB;color-interpolation-filters:linearRGB;solid-color:#000;solid-opacity:1;fill:#fff;fill-opacity:1;fill-rule:evenodd;stroke:none;stroke-width:4.16642;stroke-linecap:round;stroke-linejoin:round;stroke-miterlimit:4;stroke-dasharray:none;stroke-dashoffset:0;stroke-opacity:1;color-rendering:auto;image-rendering:auto;shape-rendering:auto;text-rendering:auto;enable-background:accumulate"/></g></svg>