<svg id="Layer_1" data-name="Layer 1" xmlns="http://www.w3.org/2000/svg" viewBox="0 0 82 82"><defs><style>.cls-1{fill:none;stroke:#fff492;stroke-miterlimit:10;stroke-width:2px;}</style></defs><path class="cls-1" d="M88.79,48.13,78.2,41.4A5.3,5.3,0,0,1,76,36.14l2.73-12.25a2.05,2.05,0,0,0-2.65-2.64L63.86,24A5.35,5.35,0,0,1,58.6,21.8L51.86,11.21a2,2,0,0,0-3.73,0L41.4,21.8A5.35,5.35,0,0,1,36.14,24L23.89,21.25a2,2,0,0,0-2.64,2.64L24,36.14A5.35,5.35,0,0,1,21.8,41.4L11.21,48.13a2,2,0,0,0,0,3.73L21.8,58.6A5.34,5.34,0,0,1,24,63.86L21.25,76.11a2,2,0,0,0,2.64,2.64L36.14,76A5.31,5.31,0,0,1,41.4,78.2l6.73,10.59a2,2,0,0,0,3.73,0L58.6,78.2A5.31,5.31,0,0,1,63.86,76l12.25,2.72a2,2,0,0,0,2.64-2.63L76,63.86A5.3,5.3,0,0,1,78.2,58.6l10.59-6.74A2,2,0,0,0,88.79,48.13Z" transform="translate(-9 -9)"/><path class="cls-1" d="M50,28.76A21.24,21.24,0,1,0,71.24,50,21.24,21.24,0,0,0,50,28.76Z" transform="translate(-9 -9)"/></svg>