<svg xmlns="http://www.w3.org/2000/svg" xmlns:svg="http://www.w3.org/2000/svg" id="svg16" width="309.921" height="309.921" version="1.1" viewBox="0 0 82 82"><metadata id="metadata13"/><g id="layer1"><g id="g1073" transform="matrix(1.2512582,0,0,1.2512582,0.98204723,0.87450371)"><g style="fill:#fff492;fill-opacity:1" id="g1770" transform="matrix(0.99699715,0,0,0.99699715,0.45357839,0.16224423)"><g style="fill:#fff492;fill-opacity:1" id="moon"><path style="fill:#fff492;fill-opacity:1" id="path1755" d="M 32.264,62.173 C 14.473,62.173 0,47.7 0,29.909 0,18.467 6.156,7.778 16.064,2.011 c 0.46,-0.267 1.033,-0.243 1.468,0.063 0.436,0.307 0.653,0.838 0.556,1.362 -0.335,1.811 -0.505,3.636 -0.505,5.424 0,16.288 13.253,29.54 29.541,29.54 5.21,0 10.338,-1.382 14.83,-3.997 0.46,-0.267 1.032,-0.245 1.469,0.064 0.435,0.306 0.652,0.838 0.555,1.362 -2.833,15.265 -16.17,26.344 -31.714,26.344 z M 14.993,5.952 c -7.633,5.52 -12.27,14.456 -12.27,23.957 0,16.288 13.253,29.54 29.541,29.54 13.253,0 24.754,-8.796 28.366,-21.292 -4.218,1.947 -8.832,2.965 -13.507,2.965 -17.791,0 -32.264,-14.473 -32.264,-32.264 0,-0.96 0.045,-1.932 0.134,-2.906 z"/></g></g></g></g></svg>