<?xml version="1.0" encoding="UTF-8" standalone="no"?>
<svg
   xmlns:dc="http://purl.org/dc/elements/1.1/"
   xmlns:cc="http://creativecommons.org/ns#"
   xmlns:rdf="http://www.w3.org/1999/02/22-rdf-syntax-ns#"
   xmlns:svg="http://www.w3.org/2000/svg"
   xmlns="http://www.w3.org/2000/svg"
   xmlns:sodipodi="http://sodipodi.sourceforge.net/DTD/sodipodi-0.dtd"
   xmlns:inkscape="http://www.inkscape.org/namespaces/inkscape"
   sodipodi:docname="02n.svg"
   inkscape:version="1.0 (4035a4fb49, 2020-05-01)"
   id="svg16"
   version="1.1"
   viewBox="0 0 82 82"
   height="309.92126"
   width="309.92126">
  <defs
     id="defs10" />
  <sodipodi:namedview
     inkscape:window-maximized="0"
     inkscape:window-y="0"
     inkscape:window-x="421"
     inkscape:window-height="1008"
     inkscape:window-width="1274"
     units="px"
     showgrid="false"
     inkscape:document-rotation="0"
     inkscape:current-layer="g1073"
     inkscape:document-units="px"
     inkscape:cy="137.28345"
     inkscape:cx="186.14557"
     inkscape:zoom="1.4"
     inkscape:pageshadow="2"
     inkscape:pageopacity="0.0"
     borderopacity="1.0"
     bordercolor="#666666"
     pagecolor="#ffffff"
     id="base" />
  <metadata
     id="metadata13">
    <rdf:RDF>
      <cc:Work
         rdf:about="">
        <dc:format>image/svg+xml</dc:format>
        <dc:type
           rdf:resource="http://purl.org/dc/dcmitype/StillImage" />
        <dc:title></dc:title>
      </cc:Work>
    </rdf:RDF>
  </metadata>
  <g
     id="layer1"
     inkscape:groupmode="layer"
     inkscape:label="Layer 1">
    <g
       transform="matrix(1.2512582,0,0,1.2512582,0.98204723,0.87450371)"
       id="g1073">
      <g
         transform="matrix(1.0577265,0,0,1.0577265,0.42979751,47.210569)"
         id="cloud-moon">
	<path
   d="m 22.000104,-39.122826 c -0.247716,-0.0149 -0.498409,0.06521 -0.694659,0.234582 -0.314001,0.271 -0.422035,0.712155 -0.268035,1.098155 2.422,6.071 0.37588,12.931964 -4.97412,16.682964 -4.46,3.126 -10.3947759,3.370796 -15.1197758,0.622797 -0.35799714,-0.209001 -0.81000038,-0.165925 -1.12500042,0.104076 -0.314,0.270999 -0.42203424,0.712155 -0.2680342,1.098156 0.47299934,1.185928 1.06286578,2.28597 1.74986292,3.265969 1.8756397,2.676642 4.4675004,4.663477 7.4644851,5.783592 0.00491,0.0013 0.00809,-4.23e-4 0.013628,0.0021 0.0049,0.0022 0.00991,0.0041 0.014867,0.0062 0.00558,0.0024 0.011002,0.0045 0.016521,0.007 0.016411,0.0076 0.031526,0.01764 0.047082,0.02684 0.00986,-0.0015 0.021452,-8.46e-4 0.036344,0.0062 0.00915,0.0044 0.018415,0.0091 0.027671,0.01322 0.1090102,0.0489 0.00881,0.0015 0.1338105,0.05988 0.021348,0.01 0.042707,0.02 0.064014,0.03015 0.015001,0.0036 0.030056,0.0069 0.045016,0.01074 0.024674,0.0029 0.049204,0.007 0.073926,0.0095 0.054225,-0.03222 0.1028623,-0.07376 0.1523954,-0.113161 0.020494,-0.0163 0.03679,-0.03327 0.054515,-0.04997 -9.304e-4,-0.0051 -0.00221,-0.01465 -0.00578,-0.0285 -0.00491,-0.02885 -0.00535,-0.02538 -0.00537,-0.05947 0,-0.0086 0.00159,-0.0174 0.00125,-0.02602 0,-0.0013 -0.00148,0.0044 -0.00207,0.0033 -0.00207,-0.004 -0.00252,-0.0087 -0.00331,-0.01322 -0.00152,-0.0088 -0.00244,-0.01764 -0.00372,-0.02643 -0.00154,-0.03501 -0.00226,-0.01852 4.229e-4,-0.05038 4.863e-4,-0.0061 0.00212,-0.0074 0.00289,-0.01239 -0.025951,-0.07356 -0.049758,-0.147679 -0.068144,-0.223431 -0.018864,-0.07772 -0.031839,-0.163521 -0.040474,-0.253165 -0.046054,-0.136578 -0.045599,-0.250826 -0.014867,-0.336592 -0.00195,-0.159079 4.23e-4,-0.319352 4.23e-4,-0.452644 v -0.0318 c -0.014449,-0.04863 -0.030725,-0.0966 -0.0413,-0.146611 -0.018358,-0.0869 -0.038155,-0.174797 -0.050385,-0.263081 -2.5321904,-0.997715 -4.7214909,-2.708928 -6.3196609,-4.988574 -0.1010001,-0.144 -0.200944,-0.292318 -0.296944,-0.442319 4.831,1.733 10.3028815,1.06205 14.5828815,-1.936951 5.281001,-3.701964 7.73514,-10.064869 6.50014,-16.196866 0.829,0.728 1.565984,1.549868 2.204985,2.461868 2.459566,3.50874 3.08024,7.762878 2.072413,11.615506 0.193237,0.360617 0.384254,0.72262 0.572411,1.085352 0.196847,0.379479 0.34452,0.67484 0.493117,0.967236 0.289461,-0.292941 0.595814,-0.567193 0.909416,-0.832599 0.0029,-0.01142 0.0059,-0.02281 0.0087,-0.03428 0.0043,-0.02117 0.0083,-0.04207 0.01279,-0.06319 0.0028,-0.01307 0.0068,-0.02607 0.0091,-0.03924 0.0041,-0.02357 0.0062,-0.04741 0.0099,-0.07103 0.01053,-0.06681 0.02555,-0.131837 0.01734,-0.200303 0.0013,-0.02472 0.0017,-0.04966 0.0037,-0.07434 0.0038,-0.04689 0.0155,-0.09271 0.02189,-0.139181 0.01129,-0.08199 0.0141,-0.141721 0.02066,-0.22756 0.0046,-0.02942 0.0089,-0.05899 0.01362,-0.08838 0.0027,-0.01647 0.007,-0.03295 0.0087,-0.04956 0.0023,-0.02298 0.0021,-0.04591 0.0033,-0.06897 0.0015,-0.02862 0.0026,-0.05738 0.0054,-0.0859 0.0047,-0.04826 0.01835,-0.127515 0.02602,-0.174285 0.0064,-0.03092 0.01214,-0.0618 0.01941,-0.09251 0.01374,-0.05772 0.03748,-0.122613 0.04171,-0.182544 0.0031,-0.04268 0.0028,-0.08566 0.0037,-0.128441 8.46e-4,-0.04463 0.0015,-0.08921 0.0021,-0.133812 -0.02102,0.04906 -0.02205,0.06302 -0.01032,-0.0318 0.0013,-0.0034 0.0025,-0.0069 0.0037,-0.01032 -8.2e-5,-0.0046 1.78e-4,-0.0089 0,-0.01776 -6.34e-4,-0.01385 -0.0026,-0.04672 -0.0025,-0.05823 6.34e-4,-0.04572 0.01136,-0.08917 0.01529,-0.134637 0.0043,-0.01871 0.0073,-0.03778 0.01281,-0.05617 8.46e-4,-0.0029 8.46e-4,0.0061 0.0013,0.0091 0.0022,-0.01533 0.0045,-0.03092 0.0066,-0.04625 0.0013,-0.0071 0.0017,-0.01833 0.0033,-0.0256 -0.0019,-0.0017 -0.0019,0.01624 -0.0033,-0.02684 -0.0017,-0.05176 0.0062,-0.07149 0.02148,-0.118943 0.0011,-0.0033 0.0027,-0.006 0.0041,-0.0091 0.0082,-0.01854 0.01556,-0.03769 0.02478,-0.05575 8.46e-4,-0.0019 0.0025,-0.0055 0.0037,-0.0083 8.46e-4,-0.01171 0.0017,-0.02346 0.0033,-0.0351 0.0017,-0.02476 0.0027,-0.04967 0.0054,-0.07434 0.0017,-0.0162 0.0061,-0.03173 0.0095,-0.0475 -0.01933,0.01083 -0.0314,0.0432 -0.03056,0.113986 2.12e-4,-0.02803 -6.34e-4,-0.05622 -4.23e-4,-0.08425 0.0011,-0.03359 -1.71e-4,-0.06717 0,-0.100771 -0.0024,0.0015 -0.005,0.0029 -0.0074,0.0045 0.003,-0.02224 0.0045,-0.04465 0.0074,-0.0669 -2.11e-4,-0.0032 4.23e-4,-0.0063 0,-0.0095 -0.0092,-0.08696 0.0029,-0.155575 0.02437,-0.211868 0.434054,-3.75214 -0.440811,-7.668864 -2.774092,-10.997663 -1.327,-1.893 -3.025875,-3.448966 -5.048874,-4.625966 -0.13425,-0.07837 -0.281712,-0.121565 -0.430341,-0.130506 z m 8.239677,16.292268 c -1.52e-4,4.23e-4 -6.35e-4,8.46e-4 -8.46e-4,0.0013 -0.0015,0.0046 -0.0015,0.01924 -8.46e-4,0.01446 6.34e-4,-0.0052 0.0013,-0.01045 0.0017,-0.01569 z M 9.9687101,-9.8752944 c -0.0014,0.0015 -0.00273,0.003 -0.00413,0.0045 0.00241,0.0011 0.00461,0.0022 0.00702,0.0033 -0.00112,-0.0027 -0.00178,-0.0051 -0.00289,-0.0078 z"
   style="fill:#fff492;fill-opacity:1;stroke-width:1"
   id="path1058" />

<path
   d="m 175.2207,-107.67969 c -15.37924,0 -30.0066,4.6401 -42.29297,12.769534 0.0168,-0.125256 0.0277,-0.251253 0.041,-0.376953 -0.78538,0.461269 -1.58925,0.893686 -2.38086,1.335937 -1.43327,0.800731 -2.54219,1.344189 -3.83203,2.304688 -0.3649,0.271733 -0.68631,0.597599 -1.0293,0.896484 -0.18713,0.206124 -0.38286,0.404512 -0.5625,0.617188 -0.3135,0.371156 -0.16829,0.300354 -0.48828,0.607421 -0.0917,0.2404 -0.23912,0.378132 -0.45898,0.392579 -0.0806,0.06372 -0.15789,0.131224 -0.23828,0.195312 -0.29983,0.239014 -0.6425,0.486043 -0.95118,0.712891 -0.12597,0.09362 -0.2554,0.181924 -0.37695,0.28125 -0.0447,0.03651 -0.0647,0.09599 -0.10742,0.134765 -0.0519,0.04714 -0.29369,0.254582 -0.50781,0.439453 -0.14935,0.56245 -0.30655,1.121981 -0.47461,1.679688 -6.89513,6.748518 -12.58445,14.802607 -16.56641,23.90625 -7.00388,-3.083416 -14.679299,-4.695313 -22.482421,-4.695313 -19.134202,0 -36.056806,9.6337 -46.191407,24.298828 -0.01719,-0.0059 -0.03363,-0.01354 -0.05078,-0.01953 -0.0048,0.0083 -0.0089,0.01707 -0.01367,0.02539 -0.09167,0.113008 -0.171878,0.206714 -0.255859,0.330078 -0.01331,0.01955 -0.02397,0.04089 -0.03711,0.06055 -0.12116,0.238557 -0.258605,0.477782 -0.390625,0.708984 -0.06097,0.09403 -0.131999,0.180658 -0.197266,0.271485 0.0069,0.05446 0.02465,0.107307 0.0293,0.162109 0.0037,0.04394 -0.177917,0.201722 -0.320313,0.320313 -0.08574,0.170098 -0.124464,0.243874 -0.296875,0.527343 -0.08236,0.125329 -0.163067,0.253401 -0.248047,0.376953 -0.266912,0.388094 -0.297277,0.416389 -0.574218,0.767578 -0.02596,0.03291 -0.09202,0.106756 -0.128906,0.154297 -0.305032,1.952697 -1.116102,3.31904 -2.136719,4.085938 -0.03383,0.08378 -0.08163,0.201162 -0.121094,0.302734 0.03018,0.01124 0.05964,0.02397 0.08984,0.03516 -3.371895,7.207234 -5.273438,15.237096 -5.273438,23.707031 0,30.919267 25.174262,56.070312 56.117188,56.070312 h 167.1465 c 22.36422,0 40.55664,-18.175873 40.55664,-40.5117185 0,-21.6122835 -17.01891,-39.3181385 -38.37109,-40.4531245 -2.22744,-40.311404 -35.74415,-72.421874 -76.62305,-72.421874 z m 0,9.203128 c 37.23745,0 67.53321,30.275582 67.53321,67.853515 0,1.272145 0.52538,2.487256 1.45703,3.357422 0.92691,0.865437 2.1598,1.338417 3.4414,1.234375 0.64317,-0.04256 1.32486,-0.08398 2.00586,-0.08398 17.2851,0 31.34961,14.041282 31.34961,31.302734 0,17.266181 -14.06451,31.306641 -31.34961,31.306641 H 82.511719 c -25.863803,0 -46.910155,-21.021171 -46.910157,-46.861329 0,-25.863789 21.046354,-46.908203 46.910157,-46.908203 8.006476,0 15.836526,2.022892 22.646481,5.853516 0.0237,0.01419 0.0525,0.01902 0.0762,0.0332 12.31461,6.824185 20.84664,18.62824 23.40039,32.404297 l 9.05078,-1.683594 c -2.81386,-15.161702 -11.68047,-28.318524 -24.53907,-36.679687 10.48456,-24.733533 34.94773,-41.128908 62.07422,-41.128906 z"
   transform="matrix(0.21145382,0,0,0.21145382,-0.78484779,-0.69889948)"
   style="fill:#caf7ff;fill-opacity:1;stroke-width:4.72917"
   id="path1084" />
</g>
      <g
         id="Layer_1">
</g>
    </g>
  </g>
</svg>
