<?xml version="1.0" encoding="UTF-8" standalone="no"?>
<svg
   xmlns:dc="http://purl.org/dc/elements/1.1/"
   xmlns:cc="http://creativecommons.org/ns#"
   xmlns:rdf="http://www.w3.org/1999/02/22-rdf-syntax-ns#"
   xmlns:svg="http://www.w3.org/2000/svg"
   xmlns="http://www.w3.org/2000/svg"
   xmlns:sodipodi="http://sodipodi.sourceforge.net/DTD/sodipodi-0.dtd"
   xmlns:inkscape="http://www.inkscape.org/namespaces/inkscape"
   inkscape:version="1.0 (4035a4fb49, 2020-05-01)"
   sodipodi:docname="03d.svg"
   version="1.1"
   viewBox="0 0 86.52 67.29"
   data-name="Layer 1"
   id="Layer_1">
  <metadata
     id="metadata40">
    <rdf:RDF>
      <cc:Work
         rdf:about="">
        <dc:format>image/svg+xml</dc:format>
        <dc:type
           rdf:resource="http://purl.org/dc/dcmitype/StillImage" />
        <dc:title></dc:title>
      </cc:Work>
    </rdf:RDF>
  </metadata>
  <sodipodi:namedview
     inkscape:current-layer="Layer_1"
     inkscape:window-maximized="0"
     inkscape:window-y="0"
     inkscape:window-x="0"
     inkscape:cy="32.437159"
     inkscape:cx="38.902314"
     inkscape:zoom="8.7857119"
     showgrid="false"
     id="namedview38"
     inkscape:window-height="1002"
     inkscape:window-width="1592"
     inkscape:pageshadow="2"
     inkscape:pageopacity="0"
     guidetolerance="10"
     gridtolerance="10"
     objecttolerance="10"
     borderopacity="1"
     bordercolor="#666666"
     pagecolor="#ffffff" />
  <defs
     id="defs28">
    <style
       id="style26">.cls-1{fill:none;stroke:#fff492;stroke-miterlimit:10;stroke-width:2px;}.cls-2{fill:#caf7ff;}</style>
  </defs>
  <g
     transform="translate(-2.6178869,-8.5365877)"
     id="cloud">
    <path
       id="path34"
       transform="translate(-7.77,-10.59)"
       d="m 82.37,52.73 a 23.84,23.84 0 0 0 -45.63,-8.25 17.43,17.43 0 1 0 -7,33.4 H 81.69 A 12.58,12.58 0 0 0 82.37,52.73 Z M 81.69,75 H 29.76 a 14.57,14.57 0 1 1 0,-29.14 14.35,14.35 0 0 1 7,1.82 v 0 a 14.52,14.52 0 0 1 7.27,10.07 l 2.81,-0.52 a 17.35,17.35 0 0 0 -7.62,-11.4 21,21 0 0 1 40.27,8.31 1.42,1.42 0 0 0 1.52,1.42 h 0.62 a 9.73,9.73 0 1 1 0,19.45 z"
       class="cls-2" />
  </g>
</svg>
