<?xml version="1.0" encoding="UTF-8" standalone="no"?>
<svg
   xmlns:dc="http://purl.org/dc/elements/1.1/"
   xmlns:cc="http://creativecommons.org/ns#"
   xmlns:rdf="http://www.w3.org/1999/02/22-rdf-syntax-ns#"
   xmlns:svg="http://www.w3.org/2000/svg"
   xmlns="http://www.w3.org/2000/svg"
   xmlns:sodipodi="http://sodipodi.sourceforge.net/DTD/sodipodi-0.dtd"
   xmlns:inkscape="http://www.inkscape.org/namespaces/inkscape"
   sodipodi:docname="10d.svg"
   inkscape:version="1.0 (4035a4fb49, 2020-05-01)"
   id="svg16"
   version="1.1"
   viewBox="0 0 82 82"
   height="309.92126"
   width="309.92126">
  <defs
     id="defs10" />
  <sodipodi:namedview
     inkscape:window-maximized="0"
     inkscape:window-y="0"
     inkscape:window-x="421"
     inkscape:window-height="1040"
     inkscape:window-width="1274"
     units="px"
     showgrid="false"
     inkscape:document-rotation="0"
     inkscape:current-layer="layer1"
     inkscape:document-units="px"
     inkscape:cy="138.15297"
     inkscape:cx="209.97196"
     inkscape:zoom="1.979899"
     inkscape:pageshadow="2"
     inkscape:pageopacity="0.0"
     borderopacity="1.0"
     bordercolor="#666666"
     pagecolor="#ffffff"
     id="base" />
  <metadata
     id="metadata13">
    <rdf:RDF>
      <cc:Work
         rdf:about="">
        <dc:format>image/svg+xml</dc:format>
        <dc:type
           rdf:resource="http://purl.org/dc/dcmitype/StillImage" />
        <dc:title></dc:title>
      </cc:Work>
    </rdf:RDF>
  </metadata>
  <g
     id="layer1"
     inkscape:groupmode="layer"
     inkscape:label="Layer 1">
    <g
       transform="matrix(0.52332646,0,0,0.52332646,-8.8969777,-23.000927)"
       id="layer1-5"
       inkscape:label="Layer 1">
      <g
         style="fill:#caf7ff;fill-opacity:1"
         id="g1166"
         transform="matrix(0.26168595,0.15039144,-0.19184003,0.33380777,98.525324,39.769582)">
        <g
           style="fill:#caf7ff;fill-opacity:1"
           id="g1162">
          <path
             d="m 296.13867,538.14258 c -3.02246,0 -6.04548,1.71167 -7.66601,5.13476 -5.93661,12.53609 -19.76758,43.26674 -19.76758,57.76758 0,19.16731 12.29933,34.76367 27.42969,34.76367 15.13034,0 27.43554,-15.59636 27.43554,-34.76367 0,-14.50084 -13.82098,-45.23149 -19.76562,-57.76758 -1.62054,-3.42309 -4.64355,-5.13476 -7.66602,-5.13476 z m 0.0117,34.24804 c 5.47934,13.23201 9.44168,24.90837 9.50586,28.66407 0,6.55964 -4.26719,11.90039 -9.50586,11.90039 -5.23866,0 -9.50586,-5.34075 -9.50586,-11.90039 0.0642,-3.74547 4.02652,-15.42182 9.50586,-28.66407 z m 48.50781,2.73243 c -0.0446,-0.0193 -0.0469,0.18984 -0.0352,0.14257 0.0119,-0.0474 0.0234,-0.0951 0.0352,-0.14257 z"
             transform="matrix(0.92700092,0,0,0.72671494,-117.14615,-130.94345)"
             style="fill:#caf7ff;fill-opacity:1;stroke-width:9.06078"
             id="path1160" />
        </g>
        <g
           style="fill:#caf7ff;fill-opacity:1"
           id="g1164" />
      </g>
      <g
         style="fill:#caf7ff;fill-opacity:1"
         transform="matrix(0.26168595,0.15039144,-0.19184003,0.33380777,120.16343,38.466826)"
         id="g1400">
        <g
           style="fill:#caf7ff;fill-opacity:1"
           id="g1396">
          <path
             id="path1394"
             style="fill:#caf7ff;fill-opacity:1;stroke-width:7.43683"
             d="m 165.7418,259.83888 c -2.80182,0 -5.60417,1.2439 -7.1064,3.73151 -5.50324,9.11016 -18.32456,31.44258 -18.32456,41.98056 0,13.92917 11.40149,25.26328 25.42734,25.26328 14.02584,0 25.43278,-11.33411 25.43278,-25.26328 0,-10.53798 -12.81207,-32.8704 -18.32275,-41.98056 -1.50224,-2.48761 -4.30458,-3.73151 -7.10641,-3.73151 z m 0.0108,24.88856 c 5.07935,9.6159 8.75244,18.10129 8.81194,20.83061 0,4.76699 -3.95569,8.64819 -8.81194,8.64819 -4.85625,0 -8.81195,-3.8812 -8.81195,-8.64819 0.0595,-2.72189 3.73259,-11.20727 8.81195,-20.83061 z m 44.96678,1.9857 c -0.0413,-0.014 -0.0435,0.13796 -0.0326,0.10361 0.011,-0.0344 0.0217,-0.0691 0.0326,-0.10361 z" />
        </g>
        <g
           style="fill:#caf7ff;fill-opacity:1"
           id="g1398" />
      </g>
      <g
         style="fill:#caf7ff;fill-opacity:1"
         id="g1408"
         transform="matrix(0.26168595,0.15039144,-0.19184003,0.33380777,146.30395,39.804364)">
        <g
           style="fill:#caf7ff;fill-opacity:1"
           id="g1404">
          <path
             d="m 296.13867,538.14258 c -3.02246,0 -6.04548,1.71167 -7.66601,5.13476 -5.93661,12.53609 -19.76758,43.26674 -19.76758,57.76758 0,19.16731 12.29933,34.76367 27.42969,34.76367 15.13034,0 27.43554,-15.59636 27.43554,-34.76367 0,-14.50084 -13.82098,-45.23149 -19.76562,-57.76758 -1.62054,-3.42309 -4.64355,-5.13476 -7.66602,-5.13476 z m 0.0117,34.24804 c 5.47934,13.23201 9.44168,24.90837 9.50586,28.66407 0,6.55964 -4.26719,11.90039 -9.50586,11.90039 -5.23866,0 -9.50586,-5.34075 -9.50586,-11.90039 0.0642,-3.74547 4.02652,-15.42182 9.50586,-28.66407 z m 48.50781,2.73243 c -0.0446,-0.0193 -0.0469,0.18984 -0.0352,0.14257 0.0119,-0.0474 0.0234,-0.0951 0.0352,-0.14257 z"
             transform="matrix(0.92700092,0,0,0.72671494,-117.14615,-130.94345)"
             style="fill:#caf7ff;fill-opacity:1;stroke-width:9.06078"
             id="path1402" />
        </g>
        <g
           style="fill:#caf7ff;fill-opacity:1"
           id="g1406" />
      </g>
      <g
         style="fill:#caf7ff;fill-opacity:1"
         id="g1416"
         transform="matrix(0.26168595,0.15039144,-0.19184003,0.33380777,102.67193,64.525582)">
        <g
           style="fill:#caf7ff;fill-opacity:1"
           id="g1412">
          <path
             d="m 296.13867,538.14258 c -3.02246,0 -6.04548,1.71167 -7.66601,5.13476 -5.93661,12.53609 -19.76758,43.26674 -19.76758,57.76758 0,19.16731 12.29933,34.76367 27.42969,34.76367 15.13034,0 27.43554,-15.59636 27.43554,-34.76367 0,-14.50084 -13.82098,-45.23149 -19.76562,-57.76758 -1.62054,-3.42309 -4.64355,-5.13476 -7.66602,-5.13476 z m 0.0117,34.24804 c 5.47934,13.23201 9.44168,24.90837 9.50586,28.66407 0,6.55964 -4.26719,11.90039 -9.50586,11.90039 -5.23866,0 -9.50586,-5.34075 -9.50586,-11.90039 0.0642,-3.74547 4.02652,-15.42182 9.50586,-28.66407 z m 48.50781,2.73243 c -0.0446,-0.0193 -0.0469,0.18984 -0.0352,0.14257 0.0119,-0.0474 0.0234,-0.0951 0.0352,-0.14257 z"
             transform="matrix(0.92700092,0,0,0.72671494,-117.14615,-130.94345)"
             style="fill:#caf7ff;fill-opacity:1;stroke-width:9.06078"
             id="path1410" />
        </g>
        <g
           style="fill:#caf7ff;fill-opacity:1"
           id="g1414" />
      </g>
      <g
         style="fill:#caf7ff;fill-opacity:1"
         transform="matrix(0.26168595,0.15039144,-0.19184003,0.33380777,126.24594,64.309988)"
         id="g1424">
        <g
           style="fill:#caf7ff;fill-opacity:1"
           id="g1420">
          <path
             id="path1418"
             style="fill:#caf7ff;fill-opacity:1;stroke-width:9.06078"
             transform="matrix(0.92700092,0,0,0.72671494,-117.14615,-130.94345)"
             d="m 296.13867,538.14258 c -3.02246,0 -6.04548,1.71167 -7.66601,5.13476 -5.93661,12.53609 -19.76758,43.26674 -19.76758,57.76758 0,19.16731 12.29933,34.76367 27.42969,34.76367 15.13034,0 27.43554,-15.59636 27.43554,-34.76367 0,-14.50084 -13.82098,-45.23149 -19.76562,-57.76758 -1.62054,-3.42309 -4.64355,-5.13476 -7.66602,-5.13476 z m 0.0117,34.24804 c 5.47934,13.23201 9.44168,24.90837 9.50586,28.66407 0,6.55964 -4.26719,11.90039 -9.50586,11.90039 -5.23866,0 -9.50586,-5.34075 -9.50586,-11.90039 0.0642,-3.74547 4.02652,-15.42182 9.50586,-28.66407 z m 48.50781,2.73243 c -0.0446,-0.0193 -0.0469,0.18984 -0.0352,0.14257 0.0119,-0.0474 0.0234,-0.0951 0.0352,-0.14257 z" />
        </g>
        <g
           style="fill:#caf7ff;fill-opacity:1"
           id="g1422" />
      </g>
      <path
         sodipodi:nodetypes="cccccccccccccccccccccccccccssccccccccccccccc"
         style="fill:none;stroke:#fff492;stroke-width:3.64902px;stroke-miterlimit:10"
         class="cls-1"
         d="m 101.56342,81.639607 c -1.901042,-1.340394 -2.859934,-3.655938 -2.463094,-5.94791 L 102.1655,61.880159 c 0.7212,-1.862247 -1.1117,-3.695147 -2.973944,-2.973952 l -13.811504,3.065177 c -2.291964,0.396834 -4.607497,-0.562053 -5.94789,-2.463085 l -7.58998,-11.932294 c -0.802274,-1.840205 -3.412366,-1.840205 -4.21464,0 l -7.58991,11.932294 c -1.340405,1.901057 -3.655973,2.859947 -5.94796,2.463085 l -13.8115,-3.065177 c -1.862247,-0.72119 -3.695137,1.111708 -2.97394,2.973952 l 3.08338,13.811538 c 0.368154,2.309479 -0.626046,4.624587 -2.55427,5.94791 l -11.95053,7.6082 c -1.840175,0.802285 -1.840175,3.412335 0,4.21462 l 11.95053,7.589943 c 1.893824,1.34615 2.850738,3.65697 2.46304,5.94791 l -2.49952,11.12951 c 0.729217,-1.03202 1.652583,-1.91203 2.71846,-2.59081 0.68834,-0.42548 1.439591,-0.73952 2.22596,-0.93049 0.742858,-0.88727 1.616443,-1.65629 2.59074,-2.28065 0.566483,-0.35824 1.180741,-0.63464 1.82456,-0.82102 1.195116,-1.74142 2.944084,-3.02744 4.96262,-3.64902 1.02148,-0.31065 2.096704,-0.40388 3.15641,-0.2737 0.850385,-0.59541 1.793729,-1.04549 2.79155,-1.33189 l 2.42656,-0.32838 c 1.221834,-0.047 2.435006,0.2233 3.52133,0.78454 v 0 c 2.526229,-0.82948 5.279435,-0.61264 7.64467,0.60207 0.990647,0.51849 2.074334,1.11506 2.754241,2.00272 l 0.438299,0.24146 c 1.107064,0.045 2.185528,0.36479 3.1382,0.93051 l -1.577691,-1.82865 c 5.18e-4,-2.42373 1.672243,-5.41035 3.388757,-7.1215 0.737514,-0.77815 -0.983979,0.4257 0,0 0.247616,-0.39892 2.920939,-2.786917 3.24353,-3.128068 0.241583,-0.800668 0.498885,-1.44433 0.91209,-2.171443 1.385579,-2.335631 4.271316,-3.650001 6.658804,-4.944182 0.40134,-0.2919 0.78454,-0.58387 1.20421,-0.85752 1.321208,-0.858234 2.759053,-1.521859 4.26932,-1.97047 l 0.89404,-0.45615 c 2.501295,-1.849738 5.359058,-3.160582 8.392718,-3.84971 z"
         id="path6" />
      <path
         sodipodi:nodetypes="sscccccccccccccccccccss"
         d="m 261.25391,254.70312 c -36.82097,-0.0195 -69.98061,22.27793 -83.85356,56.38549 -13.87296,34.10756 -5.69136,73.22022 20.68949,98.90748 6.01138,-4.44719 13.2166,-6.99269 20.6875,-7.30859 2.31537,-0.0962 4.63335,0.11196 6.89454,0.61914 2.25997,-0.56679 4.56963,-0.91281 6.89648,-1.0332 3.99231,-0.16286 7.97715,0.46985 11.72266,1.86133 h 2.20703 0.41406 c 8.97985,-2.41532 18.55079,-1.17586 26.61914,3.44726 4.84175,-0.38449 6.89203,1.5487 8.54334,3.0826 4.58221,-0.0424 5.94801,1.9586 10.07385,3.95256 v -0.75977 c 0.0501,-6.41285 1.68522,-12.7138 4.75976,-18.3418 1.76824,-3.21984 3.38331,-6.79358 6.17386,-9.18248 1.88345,-5.87366 6.09136,-10.40411 10.78903,-14.4015 l 3.44727,-8.20703 c 4.24206,-7.25803 11.02292,-12.68689 19.0332,-15.23828 l 2.61914,-3.31055 c 3.0592,-3.19984 6.87922,-5.57248 11.10352,-6.89648 h 0.41406 c -3.5419,-46.79634 -42.30269,-83.10097 -89.23047,-83.57618 z"
         transform="scale(0.26458333)"
         style="fill:none;stroke:#fff492;stroke-width:13.7916px;stroke-miterlimit:10"
         id="path8" />
      <g
         style="fill:#caf7ff;fill-opacity:1"
         transform="matrix(0.29105704,0,0,0.29105704,33.494314,80.684255)"
         id="g1158">
        <g
           style="fill:#caf7ff;fill-opacity:1"
           id="cloud-raindrops">
          <path
             sodipodi:nodetypes="scssccssccccccsccssccscsccccccc"
             d="m 418.62305,316.27734 c -59.42185,0 -113.14476,35.50895 -136.71289,89.34571 -13.63373,-6.00237 -28.57515,-9.14063 -43.76563,-9.14063 -60.23233,0 -109.23828,49.00596 -109.23828,109.23828 0,60.18419 49.00595,109.14258 109.23828,109.14258 v -17.91992 c -50.3541,0 -91.32031,-40.9167 -91.32031,-91.22266 0,-50.34607 40.96621,-91.31054 91.32031,-91.31054 15.58369,0 30.82937,3.93972 44.08594,11.39453 0.0885,0.0496 0.18176,0.0864 0.27148,0.13281 -0.0832,-0.0462 -0.16469,-0.0947 -0.24804,-0.14062 l 8.66797,-15.68946 c 2.33177,1.2869 4.59785,2.65908 6.81054,4.0957 20.40637,-48.13878 68.09662,-79.99992 120.88281,-80 72.48583,0 131.45899,58.93408 131.45899,132.08594 0,2.47156 1.02693,4.83807 2.8164,6.53125 1.80562,1.69318 4.22201,2.56849 6.68555,2.41602 1.25986,-0.0722 2.59935,-0.16211 3.93945,-0.16211 33.64705,0 61.02735,27.33281 61.02735,60.93164 0,33.59882 -27.3803,60.92969 -61.02735,60.92969 v 17.91992 c 43.54935,0.008 78.96094,-35.36453 78.96094,-78.84961 0,-42.05671 -33.13201,-76.53131 -74.69922,-78.74609 -4.33326,-78.47214 -69.57476,-140.98243 -149.15429,-140.98243 z m -120.89063,97.92578 c -5.47254,-13.24298 -10.79469,-3.86213 -11.62344,-1.55455 -0.89072,2.48761 -1.59832,6.4202 -4.06988,7.34301 -2.38434,0.88746 -4.82836,0.35394 0.46285,5.94592 23.91502,13.28595 40.46176,36.2388 45.42774,63.00391 l 17.62304,-3.26563 c -5.47884,-29.54005 -22.74172,-55.18989 -47.82031,-71.47266 z"
             transform="matrix(0.92675792,0,0,0.92675792,-119.46405,-287.93824)"
             style="fill:#caf7ff;fill-opacity:1;stroke-width:8.02456"
             id="path1143" />
        </g>
        <g
           style="fill:#caf7ff;fill-opacity:1"
           id="Layer_1" />
      </g>
    </g>
  </g>
</svg>
