<?xml version="1.0" encoding="UTF-8" standalone="no"?>
<svg
   xmlns:dc="http://purl.org/dc/elements/1.1/"
   xmlns:cc="http://creativecommons.org/ns#"
   xmlns:rdf="http://www.w3.org/1999/02/22-rdf-syntax-ns#"
   xmlns:svg="http://www.w3.org/2000/svg"
   xmlns="http://www.w3.org/2000/svg"
   xmlns:sodipodi="http://sodipodi.sourceforge.net/DTD/sodipodi-0.dtd"
   xmlns:inkscape="http://www.inkscape.org/namespaces/inkscape"
   sodipodi:docname="11d.svg"
   inkscape:version="1.0 (4035a4fb49, 2020-05-01)"
   id="svg16"
   version="1.1"
   viewBox="0 0 82 82"
   height="309.92126"
   width="309.92126">
  <defs
     id="defs10" />
  <sodipodi:namedview
     inkscape:window-maximized="0"
     inkscape:window-y="0"
     inkscape:window-x="421"
     inkscape:window-height="1040"
     inkscape:window-width="1274"
     units="px"
     showgrid="false"
     inkscape:document-rotation="0"
     inkscape:current-layer="layer1"
     inkscape:document-units="px"
     inkscape:cy="127.87789"
     inkscape:cx="180.25209"
     inkscape:zoom="1.979899"
     inkscape:pageshadow="2"
     inkscape:pageopacity="0.0"
     borderopacity="1.0"
     bordercolor="#666666"
     pagecolor="#ffffff"
     id="base" />
  <metadata
     id="metadata13">
    <rdf:RDF>
      <cc:Work
         rdf:about="">
        <dc:format>image/svg+xml</dc:format>
        <dc:type
           rdf:resource="http://purl.org/dc/dcmitype/StillImage" />
        <dc:title></dc:title>
      </cc:Work>
    </rdf:RDF>
  </metadata>
  <g
     id="layer1"
     inkscape:groupmode="layer"
     inkscape:label="Layer 1">
    <g
       transform="matrix(0.44828907,0,0,0.44828907,-4.527114,-22.681575)"
       id="layer1-4"
       inkscape:label="Layer 1">
      <g
         style="opacity:1;fill:#fff492;fill-opacity:1"
         transform="matrix(3.0664651,0,0,3.0664651,4.0130823,37.161522)"
         id="g25">
        <g
           style="fill:#fff492;fill-opacity:1"
           id="cloud-thunder">
          <path
             d="m 38.362538,31.078623 c -0.274256,-0.02275 -0.554869,0.05593 -0.782617,0.235439 L 23.891259,42.086244 c -0.327077,0.256792 -0.483753,0.67581 -0.406324,1.084915 0.07733,0.4101 0.375773,0.741421 0.774508,0.861973 l 5.503754,1.660512 -4.14254,7.988166 c -0.23856,0.460955 -0.12891,1.02418 0.264463,1.36233 0.178333,0.152102 0.392505,0.239473 0.612337,0.26215 0.267581,0.0276 0.544178,-0.0412 0.774659,-0.209436 l 14.42952,-10.577246 c 0.339393,-0.24949 0.510216,-0.667143 0.441463,-1.08239 -0.06875,-0.415246 -0.364314,-0.756287 -0.764319,-0.884008 l -5.831533,-1.844276 3.735485,-8.047087 c 0.218286,-0.469078 0.0856,-1.024756 -0.319574,-1.346029 -0.177698,-0.140601 -0.387309,-0.219497 -0.60062,-0.237195 z m -3.072142,4.879918 -2.304535,4.96262 c -0.135538,0.290626 -0.138914,0.626223 -0.0094,0.920066 0.129531,0.293842 0.378822,0.517471 0.685489,0.614451 l 4.943632,1.563594 -8.804747,6.454483 2.565109,-4.945855 c 0.152961,-0.293854 0.166645,-0.6423 0.03735,-0.948181 -0.12929,-0.305882 -0.387661,-0.538643 -0.70647,-0.634866 L 26.958581,42.51524 Z"
             style="fill:#fff492;fill-opacity:1;stroke-width:1"
             id="path10" />
        </g>
        <g
           style="fill:#fff492;fill-opacity:1"
           id="Layer_1" />
      </g>
      <g
         style="fill:#caf7ff;fill-opacity:1"
         transform="matrix(2.8233675,0,0,2.8233675,11.426509,46.425044)"
         id="g1014">
        <g
           style="fill:#caf7ff;fill-opacity:1"
           id="cloud-thunder-8">
          <path
             d="m 415.3418,684.94336 c -60.41544,0 -115.04596,36.10289 -139,90.83984 -13.86169,-6.10273 -29.05356,-9.29297 -44.49805,-9.29297 -61.23946,0 -111.06445,49.82695 -111.06445,111.06641 0,61.19051 49.82429,110.97461 111.08008,110.97461 h 55.38476 c -0.28767,-0.39583 -0.21039,-0.4681 0.16016,-0.2832 V 970.3125 h -55.54492 c -51.18791,0 -92.8379,-41.60875 -92.8379,-92.75586 0,-51.1879 41.64183,-92.83984 92.8379,-92.83984 15.85235,0 31.34598,4.00647 44.82421,11.58593 0.0408,0.0245 0.0975,0.04 0.14649,0.0645 24.3783,13.5027 41.25994,36.87022 46.31836,64.13672 l 17.91601,-3.32813 c -5.57241,-30.01598 -23.1131,-56.05139 -48.56836,-72.60547 20.74767,-48.95241 69.16904,-81.39844 122.85352,-81.39843 73.69785,-10e-6 133.65625,59.91759 133.65625,134.30078 0,2.52105 1.03538,4.91913 2.87109,6.64062 1.8194,1.71334 4.21056,2.60194 6.79688,2.45508 1.28092,-0.0734 2.63554,-0.16211 3.99805,-0.16211 34.2095,0 62.04687,27.79641 62.04687,61.95703 0,34.16062 -27.83737,61.95703 -62.04687,61.95703 h -69.8711 v 18.21875 h 69.8711 c 44.26106,0 80.26562,-35.97141 80.26562,-80.18359 0,-42.76809 -33.68697,-77.81034 -75.94922,-80.07031 C 562.59072,748.50093 496.25197,684.9434 415.3418,684.9434 Z"
             transform="matrix(0.12256802,0,0,0.12256802,-14.803579,-76.405268)"
             style="fill:#caf7ff;fill-opacity:1;stroke-width:8.15874"
             id="path999" />
        </g>
        <g
           style="fill:#caf7ff;fill-opacity:1"
           id="Layer_1-8" />
      </g>
    </g>
  </g>
</svg>
