<?xml version="1.0" encoding="UTF-8" standalone="no"?>
<svg
   xmlns:dc="http://purl.org/dc/elements/1.1/"
   xmlns:cc="http://creativecommons.org/ns#"
   xmlns:rdf="http://www.w3.org/1999/02/22-rdf-syntax-ns#"
   xmlns:svg="http://www.w3.org/2000/svg"
   xmlns="http://www.w3.org/2000/svg"
   xmlns:sodipodi="http://sodipodi.sourceforge.net/DTD/sodipodi-0.dtd"
   xmlns:inkscape="http://www.inkscape.org/namespaces/inkscape"
   sodipodi:docname="50d.svg"
   inkscape:version="1.0 (4035a4fb49, 2020-05-01)"
   id="svg16"
   version="1.1"
   viewBox="0 0 82 82"
   height="309.92126"
   width="309.92126">
  <defs
     id="defs10" />
  <sodipodi:namedview
     inkscape:window-maximized="0"
     inkscape:window-y="0"
     inkscape:window-x="421"
     inkscape:window-height="1008"
     inkscape:window-width="1274"
     units="px"
     showgrid="false"
     inkscape:document-rotation="0"
     inkscape:current-layer="layer1"
     inkscape:document-units="px"
     inkscape:cy="83.359681"
     inkscape:cx="167.88366"
     inkscape:zoom="1.4"
     inkscape:pageshadow="2"
     inkscape:pageopacity="0.0"
     borderopacity="1.0"
     bordercolor="#666666"
     pagecolor="#ffffff"
     id="base" />
  <metadata
     id="metadata13">
    <rdf:RDF>
      <cc:Work
         rdf:about="">
        <dc:format>image/svg+xml</dc:format>
        <dc:type
           rdf:resource="http://purl.org/dc/dcmitype/StillImage" />
        <dc:title></dc:title>
      </cc:Work>
    </rdf:RDF>
  </metadata>
  <g
     id="layer1"
     inkscape:groupmode="layer"
     inkscape:label="Layer 1">
    <g
       style="fill:#caf7ff;fill-opacity:1"
       transform="matrix(1.2685669,0,0,1.2685669,0.41564158,2.0397418)"
       id="g1056">
      <g
         style="fill:#caf7ff;fill-opacity:1"
         id="windy">
	<g
   style="fill:#caf7ff;fill-opacity:1"
   id="g1022">
		<path
   style="fill:#caf7ff;fill-opacity:1"
   d="m 55.995,22.55 c -2.468,0 -3.753,-1.379 -4.786,-2.486 -0.94,-1.009 -1.683,-1.805 -3.218,-1.805 -1.533,0 -2.275,0.796 -3.215,1.804 -1.032,1.109 -2.318,2.488 -4.784,2.488 -2.468,0 -3.753,-1.379 -4.786,-2.488 -0.94,-1.008 -1.682,-1.804 -3.216,-1.804 -1.533,0 -2.275,0.796 -3.215,1.804 -1.032,1.109 -2.318,2.488 -4.784,2.488 -2.466,0 -3.751,-1.379 -4.783,-2.488 -0.94,-1.008 -1.682,-1.804 -3.214,-1.804 -1.532,0 -2.274,0.796 -3.214,1.804 -1.032,1.109 -2.317,2.488 -4.783,2.488 -2.466,0 -3.751,-1.379 -4.783,-2.488 C 2.274,19.054 1.532,18.258 0,18.258 v -2.146 c 2.466,0 3.75,1.379 4.782,2.488 0.94,1.008 1.681,1.804 3.214,1.804 1.532,0 2.274,-0.796 3.214,-1.804 1.032,-1.109 2.317,-2.488 4.783,-2.488 2.466,0 3.751,1.379 4.783,2.488 0.94,1.008 1.682,1.804 3.214,1.804 1.533,0 2.275,-0.796 3.215,-1.804 1.032,-1.109 2.318,-2.488 4.784,-2.488 2.466,0 3.752,1.379 4.785,2.488 0.94,1.008 1.683,1.804 3.217,1.804 1.533,0 2.275,-0.796 3.215,-1.804 1.032,-1.109 2.318,-2.488 4.784,-2.488 2.468,0 3.754,1.379 4.788,2.488 0.94,1.008 1.683,1.804 3.217,1.804 1.535,0 2.278,-0.796 3.218,-1.804 1.033,-1.109 2.32,-2.488 4.788,-2.488 v 2.146 c -1.535,0 -2.278,0.796 -3.218,1.804 -1.034,1.109 -2.321,2.488 -4.788,2.488 z"
   id="path1020" />

	</g>

	<g
   style="fill:#caf7ff;fill-opacity:1"
   id="g1026">
		<path
   style="fill:#caf7ff;fill-opacity:1"
   d="m 55.995,30.996 c -2.468,0 -3.753,-1.379 -4.786,-2.486 -0.94,-1.009 -1.683,-1.805 -3.218,-1.805 -1.533,0 -2.275,0.796 -3.215,1.804 -1.032,1.109 -2.318,2.488 -4.784,2.488 -2.468,0 -3.753,-1.379 -4.786,-2.488 -0.94,-1.008 -1.682,-1.804 -3.216,-1.804 -1.533,0 -2.275,0.796 -3.215,1.804 -1.032,1.109 -2.318,2.488 -4.784,2.488 -2.466,0 -3.751,-1.379 -4.783,-2.488 -0.94,-1.008 -1.682,-1.804 -3.214,-1.804 -1.532,0 -2.274,0.796 -3.214,1.804 -1.032,1.109 -2.317,2.488 -4.783,2.488 -2.466,0 -3.751,-1.379 -4.783,-2.488 C 2.274,27.501 1.532,26.704 0,26.704 v -2.146 c 2.466,0 3.75,1.379 4.782,2.488 0.94,1.008 1.681,1.804 3.214,1.804 1.532,0 2.274,-0.796 3.214,-1.804 1.032,-1.109 2.317,-2.488 4.783,-2.488 2.466,0 3.751,1.379 4.783,2.488 0.94,1.008 1.682,1.804 3.214,1.804 1.533,0 2.275,-0.796 3.215,-1.804 1.032,-1.109 2.318,-2.488 4.784,-2.488 2.466,0 3.752,1.379 4.785,2.488 0.94,1.008 1.683,1.804 3.217,1.804 1.533,0 2.275,-0.796 3.215,-1.804 1.032,-1.109 2.318,-2.488 4.784,-2.488 2.468,0 3.754,1.379 4.788,2.488 0.94,1.008 1.683,1.804 3.217,1.804 1.535,0 2.278,-0.796 3.218,-1.804 1.033,-1.109 2.32,-2.488 4.788,-2.488 v 2.146 c -1.535,0 -2.278,0.796 -3.218,1.804 -1.034,1.109 -2.321,2.488 -4.788,2.488 z"
   id="path1024" />

	</g>

	<g
   style="fill:#caf7ff;fill-opacity:1"
   id="g1030">
		<path
   style="fill:#caf7ff;fill-opacity:1"
   d="m 55.995,39.443 c -2.468,0 -3.753,-1.379 -4.786,-2.486 -0.94,-1.009 -1.683,-1.805 -3.218,-1.805 -1.533,0 -2.275,0.796 -3.215,1.804 -1.032,1.109 -2.318,2.488 -4.784,2.488 -2.468,0 -3.753,-1.379 -4.786,-2.488 -0.94,-1.008 -1.682,-1.804 -3.216,-1.804 -1.533,0 -2.275,0.796 -3.215,1.804 -1.032,1.109 -2.318,2.488 -4.784,2.488 -2.466,0 -3.751,-1.379 -4.783,-2.488 -0.94,-1.008 -1.682,-1.804 -3.214,-1.804 -1.532,0 -2.274,0.796 -3.214,1.804 -1.032,1.109 -2.317,2.488 -4.783,2.488 -2.466,0 -3.751,-1.379 -4.783,-2.488 C 2.274,35.947 1.532,35.151 0,35.151 v -2.146 c 2.466,0 3.75,1.379 4.782,2.488 0.94,1.008 1.681,1.804 3.214,1.804 1.532,0 2.274,-0.796 3.214,-1.804 1.032,-1.109 2.317,-2.488 4.783,-2.488 2.466,0 3.751,1.379 4.783,2.488 0.94,1.008 1.682,1.804 3.214,1.804 1.533,0 2.275,-0.796 3.215,-1.804 1.032,-1.109 2.318,-2.488 4.784,-2.488 2.466,0 3.752,1.379 4.785,2.488 0.94,1.008 1.683,1.804 3.217,1.804 1.533,0 2.275,-0.796 3.215,-1.804 1.032,-1.109 2.318,-2.488 4.784,-2.488 2.468,0 3.754,1.379 4.788,2.488 0.94,1.008 1.683,1.804 3.217,1.804 1.535,0 2.278,-0.796 3.218,-1.804 1.033,-1.109 2.32,-2.488 4.788,-2.488 v 2.146 c -1.535,0 -2.278,0.796 -3.218,1.804 -1.034,1.109 -2.321,2.488 -4.788,2.488 z"
   id="path1028" />

	</g>

	<g
   style="fill:#caf7ff;fill-opacity:1"
   id="g1034">
		<path
   style="fill:#caf7ff;fill-opacity:1"
   d="m 55.995,47.888 c -2.468,0 -3.753,-1.379 -4.786,-2.486 -0.94,-1.009 -1.683,-1.805 -3.218,-1.805 -1.533,0 -2.275,0.796 -3.215,1.804 -1.032,1.109 -2.318,2.488 -4.784,2.488 -2.468,0 -3.753,-1.379 -4.786,-2.488 -0.94,-1.008 -1.682,-1.804 -3.216,-1.804 -1.533,0 -2.275,0.796 -3.215,1.804 -1.032,1.109 -2.318,2.488 -4.784,2.488 -2.466,0 -3.751,-1.379 -4.783,-2.488 -0.94,-1.008 -1.682,-1.804 -3.214,-1.804 -1.532,0 -2.274,0.796 -3.214,1.804 -1.032,1.109 -2.317,2.488 -4.783,2.488 -2.466,0 -3.751,-1.379 -4.783,-2.488 C 2.274,44.393 1.532,43.596 0,43.596 V 41.45 c 2.466,0 3.75,1.379 4.782,2.488 0.94,1.008 1.681,1.804 3.214,1.804 1.532,0 2.274,-0.796 3.214,-1.804 1.032,-1.109 2.317,-2.488 4.783,-2.488 2.466,0 3.751,1.379 4.783,2.488 0.94,1.008 1.682,1.804 3.214,1.804 1.533,0 2.275,-0.796 3.215,-1.804 1.032,-1.109 2.318,-2.488 4.784,-2.488 2.466,0 3.752,1.379 4.785,2.488 0.94,1.008 1.683,1.804 3.217,1.804 1.533,0 2.275,-0.796 3.215,-1.804 1.032,-1.109 2.318,-2.488 4.784,-2.488 2.468,0 3.754,1.379 4.788,2.488 0.94,1.008 1.683,1.804 3.217,1.804 1.535,0 2.278,-0.796 3.218,-1.804 1.033,-1.109 2.32,-2.488 4.788,-2.488 v 2.146 c -1.535,0 -2.278,0.796 -3.218,1.804 -1.034,1.109 -2.321,2.488 -4.788,2.488 z"
   id="path1032" />

	</g>

</g>
      <g
         style="fill:#caf7ff;fill-opacity:1"
         id="Layer_1">
</g>
    </g>
  </g>
</svg>
